<svg width="26" height="36" viewBox="0 0 26 36" fill="none" xmlns="http://www.w3.org/2000/svg">
<path d="M25.8 13C25.8 20 17 35.9001 13.1 35.9001C10 35.9001 0.400024 20 0.400024 13C0.400024 6.00005 6.10003 0.300049 13.1 0.300049C20.1 0.300049 25.8 6.00005 25.8 13Z" fill="white"/>
<path d="M13.1 22.5C18.3467 22.5 22.6 18.2467 22.6 13C22.6 7.75329 18.3467 3.5 13.1 3.5C7.85327 3.5 3.59998 7.75329 3.59998 13C3.59998 18.2467 7.85327 22.5 13.1 22.5Z" fill="#EB5972"/>
<path d="M19.1 9.90005C19.1 9.80005 19.1 9.80005 19.1 9.70005L18.2 7.40005C18.2 7.30005 18.1 7.30005 18 7.30005H8.40005C8.30005 7.30005 8.20005 7.40005 8.20005 7.40005L7.30005 9.70005V9.80005V9.90005C7.30005 10.4 7.60005 10.8 8.00005 10.9V17.4H7.80005C7.70005 17.4 7.60005 17.5 7.60005 17.6C7.60005 17.7 7.70005 17.8 7.80005 17.8H18.8C18.9 17.8 19 17.7 19 17.6C19 17.5 18.9 17.4 18.8 17.4H18.6V10.9C18.8 10.8 19.1 10.4 19.1 9.90005ZM18.1 10.5C17.9 10.5 17.8 10.5 17.7 10.3C17.6 10.2 17.6 10.1 17.5 10H18.6C18.5 10.3 18.3 10.5 18.1 10.5ZM10.8 7.80005L10.5 9.60005H9.40005L9.90005 7.80005H10.8ZM16.4 7.80005L16.9 9.60005H15.8L15.5 7.80005H16.4ZM15.3 9.60005H14.2L14 7.80005H15L15.3 9.60005ZM13.8 9.60005H12.5L12.7 7.80005H13.7L13.8 9.60005ZM12 9.60005H10.9L11.2 7.80005H12.1L12 9.60005ZM10.3 10.1C10.2 10.4 10 10.6 9.70005 10.6C9.40005 10.6 9.20005 10.4 9.10005 10.1H10.3ZM12 10.1C11.9 10.4 11.7 10.6 11.4 10.6C11.1 10.6 10.9 10.4 10.8 10.1H12ZM13.8 10.1C13.7 10.4 13.5 10.6 13.2 10.6H13C12.7 10.6 12.5 10.4 12.4 10.1H13.8ZM15.4 10.1C15.3 10.4 15.1 10.6 14.8 10.6C14.5 10.6 14.3 10.4 14.2 10.1H15.4ZM17 10.1C16.9 10.4 16.7 10.6 16.4 10.6C16.1 10.6 15.9 10.4 15.8 10.1H17ZM18.5 9.60005H17.4L16.9 7.80005H17.8L18.5 9.60005ZM8.50005 7.80005H9.40005L8.90005 9.60005H7.80005L8.50005 7.80005ZM7.60005 10C7.70005 10.1 7.70005 10 7.60005 10H8.70005C8.70005 10.1 8.60005 10.2 8.50005 10.3C8.40005 10.4 8.20005 10.5 8.10005 10.5C7.90005 10.5 7.70005 10.3 7.60005 10ZM11 17.4V14.6H12.8V17.4H11ZM11.1 14.2C11.2 13.2 12.1 12.4 13.2 12.4C14.3 12.4 15.1 13.2 15.3 14.2H11.1ZM13.3 14.6H15.1V17.4H13.3V14.6Z" fill="white"/>
</svg>
